# xmcd
#
# Track frame offsets:
#	150
#	15805
#	31362
#	45992
#	65870
#	82316
#	98182
#	116653
#	129251
#	141737
#	156633
#	170236
#	186117
#	202003
#	220256
#	236159
#	252522
#	265613
#	278658
#	297687
#	313628
#
# Disc length: 4378 seconds
#
# Revision: 1
# Processed by: cddbd v1.5.2PL0 Copyright (c) Steve Scherf et al.
# Submitted via: dBpowerAMP V4.0
#
DISCID=4d111815
DTITLE=Various Artist - Hott Urban Volume 26 Can
DYEAR=2017
DGENRE=Urban
TTITLE0=Drake ft. Kanye West - Glow
TTITLE1=Meek Mill ft. Chris Brown and TY Dolla $ign - Whatever You Need
TTITLE2=DJ Khaled ft. Drake - To The Max
TTITLE3=Khalid ft. Rae Sremmurd And Lil Yachty - Young Dumb and Broke [Remix]
TTITLE4=Lecrae ft. Tori Kelly - I'll Find You
TTITLE5=A Boogie Wit Da Hoodie ft. Kodak Black - Drowning
TTITLE6=Joey Bada$$ - Temptation
TTITLE7=Joe Gifted ft. Frontstreet - Water
TTITLE8=Russ - Me You
TTITLE9=Vince Staples - Big Fish
TTITLE10=Playboi Carti - Magnolia
TTITLE11=Calvin Harris ft. Future And Khalid - Rollin
TTITLE12=6lack - Ex Calling
TTITLE13=Mike Will Made-it ft. Kendrick Lamar, Gucci Mane And Rae Sremmurd - Perfect Pint
TTITLE14=O.T Genasis ft. 2 Chainz - Thick
TTITLE15=Charlie Wilson - Good Time
TTITLE16=Jalen Santoy - Foreplay
TTITLE17=August Alsina - Don't Matter
TTITLE18=Rajitheone - #whitegirlvoice
TTITLE19=Meek Mill - Glow Up
TTITLE20=Cierra Ramirez ft. Baeza - Faded
EXTD=
EXTT0=
EXTT1=
EXTT2=
EXTT3=
EXTT4=
EXTT5=
EXTT6=
EXTT7=
EXTT8=
EXTT9=
EXTT10=
EXTT11=
EXTT12=
EXTT13=
EXTT14=
EXTT15=
EXTT16=
EXTT17=
EXTT18=
EXTT19=
EXTT20=
PLAYORDER=
